<svg width="21" height="21" viewBox="0 0 21 21" fill="none" xmlns="http://www.w3.org/2000/svg">
<mask id="mask0_1672_4058" style="mask-type:alpha" maskUnits="userSpaceOnUse" x="0" y="0" width="21" height="21">
<rect x="0.954102" y="0.737549" width="20" height="20" fill="#D9D9D9"/>
</mask>
<g mask="url(#mask0_1672_4058)">
<path d="M9.4541 12.2375V14.2375C9.4541 14.6542 9.59993 15.0084 9.8916 15.3C10.1833 15.5917 10.5374 15.7375 10.9541 15.7375C11.3708 15.7375 11.7249 15.5917 12.0166 15.3C12.3083 15.0084 12.4541 14.6542 12.4541 14.2375V12.2375H14.4541C14.8708 12.2375 15.2249 12.0917 15.5166 11.8C15.8083 11.5084 15.9541 11.1542 15.9541 10.7375C15.9541 10.3209 15.8083 9.96672 15.5166 9.67505C15.2249 9.38338 14.8708 9.23755 14.4541 9.23755H12.4541V7.23755C12.4541 6.82088 12.3083 6.46672 12.0166 6.17505C11.7249 5.88338 11.3708 5.73755 10.9541 5.73755C10.5374 5.73755 10.1833 5.88338 9.8916 6.17505C9.59993 6.46672 9.4541 6.82088 9.4541 7.23755V9.23755H7.4541C7.03743 9.23755 6.68327 9.38338 6.3916 9.67505C6.09993 9.96672 5.9541 10.3209 5.9541 10.7375C5.9541 11.1542 6.09993 11.5084 6.3916 11.8C6.68327 12.0917 7.03743 12.2375 7.4541 12.2375H9.4541ZM3.9541 19.7375C3.4041 19.7375 2.93327 19.5417 2.5416 19.15C2.14993 18.7584 1.9541 18.2875 1.9541 17.7375V3.73755C1.9541 3.18755 2.14993 2.71672 2.5416 2.32505C2.93327 1.93338 3.4041 1.73755 3.9541 1.73755H17.9541C18.5041 1.73755 18.9749 1.93338 19.3666 2.32505C19.7583 2.71672 19.9541 3.18755 19.9541 3.73755V17.7375C19.9541 18.2875 19.7583 18.7584 19.3666 19.15C18.9749 19.5417 18.5041 19.7375 17.9541 19.7375H3.9541Z" fill="#81CF34"/>
</g>
</svg>
