<svg width="21" height="21" viewBox="0 0 21 21" fill="none" xmlns="http://www.w3.org/2000/svg">
<path d="M6.16839 16.5602C5.86482 16.5602 5.61017 16.4573 5.40446 16.2516C5.19946 16.0466 5.09696 15.7923 5.09696 15.4888C5.09696 15.1852 5.19946 14.9309 5.40446 14.7259C5.61017 14.5202 5.86482 14.4173 6.16839 14.4173C6.47196 14.4173 6.7266 14.5202 6.93232 14.7259C7.13732 14.9309 7.23982 15.1852 7.23982 15.4888C7.23982 15.7923 7.13732 16.0466 6.93232 16.2516C6.7266 16.4573 6.47196 16.5602 6.16839 16.5602ZM10.4541 16.5602C10.1505 16.5602 9.89624 16.4573 9.69124 16.2516C9.48553 16.0466 9.38267 15.7923 9.38267 15.4888C9.38267 15.1852 9.48553 14.9309 9.69124 14.7259C9.89624 14.5202 10.1505 14.4173 10.4541 14.4173C10.7577 14.4173 11.0123 14.5202 11.218 14.7259C11.423 14.9309 11.5255 15.1852 11.5255 15.4888C11.5255 15.7923 11.423 16.0466 11.218 16.2516C11.0123 16.4573 10.7577 16.5602 10.4541 16.5602ZM14.7398 16.5602C14.4362 16.5602 14.182 16.4573 13.977 16.2516C13.7712 16.0466 13.6684 15.7923 13.6684 15.4888C13.6684 15.1852 13.7712 14.9309 13.977 14.7259C14.182 14.5202 14.4362 14.4173 14.7398 14.4173C15.0434 14.4173 15.2977 14.5202 15.5027 14.7259C15.7084 14.9309 15.8112 15.1852 15.8112 15.4888C15.8112 15.7923 15.7084 16.0466 15.5027 16.2516C15.2977 16.4573 15.0434 16.5602 14.7398 16.5602ZM4.02553 12.2745C3.72196 12.2745 3.46732 12.1716 3.2616 11.9659C3.0566 11.7609 2.9541 11.5066 2.9541 11.2031V10.1316C2.9541 8.23877 3.56124 6.59591 4.77553 5.20306C5.98982 3.8102 7.52553 2.98877 9.38267 2.73877V1.5602C9.38267 1.25663 9.48553 1.00198 9.69124 0.796269C9.89624 0.591269 10.1505 0.48877 10.4541 0.48877C10.7577 0.48877 11.0123 0.591269 11.218 0.796269C11.423 1.00198 11.5255 1.25663 11.5255 1.5602V2.73877C13.3827 2.98877 14.9184 3.8102 16.1327 5.20306C17.347 6.59591 17.9541 8.23877 17.9541 10.1316V11.2031C17.9541 11.5066 17.8512 11.7609 17.6455 11.9659C17.4405 12.1716 17.1862 12.2745 16.8827 12.2745H4.02553ZM6.16839 19.7745C5.86482 19.7745 5.61017 19.6716 5.40446 19.4659C5.19946 19.2609 5.09696 19.0066 5.09696 18.7031C5.09696 18.3995 5.19946 18.1452 5.40446 17.9402C5.61017 17.7345 5.86482 17.6316 6.16839 17.6316C6.47196 17.6316 6.7266 17.7345 6.93232 17.9402C7.13732 18.1452 7.23982 18.3995 7.23982 18.7031C7.23982 19.0066 7.13732 19.2609 6.93232 19.4659C6.7266 19.6716 6.47196 19.7745 6.16839 19.7745ZM10.4541 19.7745C10.1505 19.7745 9.89624 19.6716 9.69124 19.4659C9.48553 19.2609 9.38267 19.0066 9.38267 18.7031C9.38267 18.3995 9.48553 18.1452 9.69124 17.9402C9.89624 17.7345 10.1505 17.6316 10.4541 17.6316C10.7577 17.6316 11.0123 17.7345 11.218 17.9402C11.423 18.1452 11.5255 18.3995 11.5255 18.7031C11.5255 19.0066 11.423 19.2609 11.218 19.4659C11.0123 19.6716 10.7577 19.7745 10.4541 19.7745ZM14.7398 19.7745C14.4362 19.7745 14.182 19.6716 13.977 19.4659C13.7712 19.2609 13.6684 19.0066 13.6684 18.7031C13.6684 18.3995 13.7712 18.1452 13.977 17.9402C14.182 17.7345 14.4362 17.6316 14.7398 17.6316C15.0434 17.6316 15.2977 17.7345 15.5027 17.9402C15.7084 18.1452 15.8112 18.3995 15.8112 18.7031C15.8112 19.0066 15.7084 19.2609 15.5027 19.4659C15.2977 19.6716 15.0434 19.7745 14.7398 19.7745Z" fill="#AEBAFC"/>
</svg>
