<svg width="21" height="20" viewBox="0 0 21 20" fill="none" xmlns="http://www.w3.org/2000/svg">
<mask id="mask0_1672_4041" style="mask-type:alpha" maskUnits="userSpaceOnUse" x="0" y="-1" width="21" height="21">
<rect x="0.704102" y="-0.00952148" width="20" height="20" fill="#D9D9D9"/>
</mask>
<g mask="url(#mask0_1672_4041)">
<path d="M4.45411 10.0947C3.87077 10.0947 3.37772 9.89334 2.97494 9.49056C2.57216 9.08778 2.37077 8.59473 2.37077 8.01139C2.37077 7.42806 2.57216 6.935 2.97494 6.53223C3.37772 6.12945 3.87077 5.92806 4.45411 5.92806C5.03744 5.92806 5.5305 6.12945 5.93327 6.53223C6.33605 6.935 6.53744 7.42806 6.53744 8.01139C6.53744 8.59473 6.33605 9.08778 5.93327 9.49056C5.5305 9.89334 5.03744 10.0947 4.45411 10.0947ZM8.20411 6.76139C7.62077 6.76139 7.12772 6.56 6.72494 6.15723C6.32216 5.75445 6.12077 5.26139 6.12077 4.67806C6.12077 4.09473 6.32216 3.60167 6.72494 3.19889C7.12772 2.79612 7.62077 2.59473 8.20411 2.59473C8.78744 2.59473 9.2805 2.79612 9.68327 3.19889C10.0861 3.60167 10.2874 4.09473 10.2874 4.67806C10.2874 5.26139 10.0861 5.75445 9.68327 6.15723C9.2805 6.56 8.78744 6.76139 8.20411 6.76139ZM13.2041 6.76139C12.6208 6.76139 12.1277 6.56 11.7249 6.15723C11.3222 5.75445 11.1208 5.26139 11.1208 4.67806C11.1208 4.09473 11.3222 3.60167 11.7249 3.19889C12.1277 2.79612 12.6208 2.59473 13.2041 2.59473C13.7874 2.59473 14.2805 2.79612 14.6833 3.19889C15.0861 3.60167 15.2874 4.09473 15.2874 4.67806C15.2874 5.26139 15.0861 5.75445 14.6833 6.15723C14.2805 6.56 13.7874 6.76139 13.2041 6.76139ZM16.9541 10.0947C16.3708 10.0947 15.8777 9.89334 15.4749 9.49056C15.0722 9.08778 14.8708 8.59473 14.8708 8.01139C14.8708 7.42806 15.0722 6.935 15.4749 6.53223C15.8777 6.12945 16.3708 5.92806 16.9541 5.92806C17.5374 5.92806 18.0305 6.12945 18.4333 6.53223C18.8361 6.935 19.0374 7.42806 19.0374 8.01139C19.0374 8.59473 18.8361 9.08778 18.4333 9.49056C18.0305 9.89334 17.5374 10.0947 16.9541 10.0947ZM6.24577 18.4281C5.62077 18.4281 5.09647 18.1885 4.67286 17.7093C4.24925 17.2301 4.03744 16.6642 4.03744 16.0114C4.03744 15.2892 4.28397 14.6572 4.77702 14.1156C5.27008 13.5739 5.75966 13.0392 6.24577 12.5114C6.64855 12.0808 6.99577 11.6121 7.28744 11.1051C7.57911 10.5982 7.92633 10.1225 8.32911 9.67806C8.63466 9.31695 8.98883 9.01834 9.39161 8.78223C9.79438 8.54612 10.2319 8.42806 10.7041 8.42806C11.1763 8.42806 11.6138 8.53917 12.0166 8.76139C12.4194 8.98362 12.7736 9.27528 13.0791 9.63639C13.468 10.0808 13.8117 10.56 14.1104 11.0739C14.409 11.5878 14.7597 12.0669 15.1624 12.5114C15.6486 13.0392 16.1381 13.5739 16.6312 14.1156C17.1242 14.6572 17.3708 15.2892 17.3708 16.0114C17.3708 16.6642 17.159 17.2301 16.7354 17.7093C16.3117 18.1885 15.7874 18.4281 15.1624 18.4281C14.4124 18.4281 13.6694 18.3656 12.9333 18.2406C12.1972 18.1156 11.4541 18.0531 10.7041 18.0531C9.95411 18.0531 9.21105 18.1156 8.47494 18.2406C7.73883 18.3656 6.99577 18.4281 6.24577 18.4281Z" fill="#C5A0F6"/>
</g>
</svg>
