<svg width="121" height="120" viewBox="0 0 121 120" fill="none" xmlns="http://www.w3.org/2000/svg">
<circle cx="60.9229" cy="60.0063" r="60" fill="#FFC18D"/>
<g style="mix-blend-mode:overlay">
<path d="M52.9229 59.0063C52.9229 56.2449 55.1614 54.0063 57.9229 54.0063H67.9229C70.6843 54.0063 72.9229 56.2449 72.9229 59.0063V60.121C72.9229 61.6298 72.2415 63.0579 71.0688 64.0072L65.7309 68.3284C63.8242 69.8719 61.0792 69.8042 59.251 68.1684L54.5889 63.997C53.5288 63.0485 52.9229 61.6933 52.9229 60.2708V59.0063Z" fill="#2C2C2C"/>
<path d="M62.9229 63.0063C62.9229 68.5063 62.9229 67.5063 62.9229 71.0063C62.9229 74.5063 58.9229 83.0063 49.9229 83.0063C40.9229 83.0063 37.1705 75.292 36.9229 72.5892" stroke="#2C2C2C" stroke-width="6" stroke-linecap="round" stroke-linejoin="round"/>
<path d="M62.9229 63.0063C62.9229 68.5063 62.9229 67.5063 62.9229 71.0063C62.9229 74.5063 66.9229 83.0063 75.9229 83.0063C84.9229 83.0063 88.6752 75.292 88.9229 72.5892" stroke="#2C2C2C" stroke-width="6" stroke-linecap="round" stroke-linejoin="round"/>
<path d="M47.4807 38.5509C43.6804 38.3103 38.3707 41.9259 37.9542 44.5921" stroke="#2C2C2C" stroke-width="6" stroke-linecap="round" stroke-linejoin="round"/>
<path d="M76.7605 38.5509C80.5608 38.3103 85.8706 41.9259 86.287 44.5921" stroke="#2C2C2C" stroke-width="6" stroke-linecap="round" stroke-linejoin="round"/>
</g>
</svg>
